<svg xmlns="http://www.w3.org/2000/svg" width="54.522" height="69.141" viewBox="0 0 54.522 69.141">
  <g id="Group_411" data-name="Group 411" transform="translate(-932.739 -327.857)">
    <g id="Group_410" data-name="Group 410">
      <g id="Group_409" data-name="Group 409">
        <path id="Path_198" data-name="Path 198" d="M977.81,373.9a26.484,26.484,0,1,0-35.62,0l-9.451,15.243,9.613-1.368L945.4,397l10.265-16.558a24.586,24.586,0,0,0,8.668,0L974.6,397l3.049-9.221,9.613,1.368ZM960,373.79a19.449,19.449,0,1,1,19.449-19.449A19.471,19.471,0,0,1,960,373.79Z" fill="#fff"/>
      </g>
    </g>
    <path id="Path_199" data-name="Path 199" d="M960,338.8a15.539,15.539,0,1,0,15.539,15.539A15.539,15.539,0,0,0,960,338.8Zm4.74,18.172,2.463,7.579a.491.491,0,0,1-.756.549L960,360.419l-6.447,4.684a.491.491,0,0,1-.756-.549l2.463-7.579-6.447-4.684a.491.491,0,0,1,.288-.888h7.97l2.462-7.579a.491.491,0,0,1,.934,0l2.463,7.579H970.9a.491.491,0,0,1,.288.888Z" fill="#fff"/>
  </g>
</svg>
