<svg xmlns="http://www.w3.org/2000/svg" width="79.633" height="53.173" viewBox="0 0 79.633 53.173">
  <g id="Group_408" data-name="Group 408" transform="translate(-821.957 -541.739)">
    <path id="Path_196" data-name="Path 196" d="M861.161,579.811a3.043,3.043,0,0,1-1.243-.266l-20.424-9.174v19.414c0,1.541,2.077,5.127,21.3,5.127,20.41,0,22-3.924,22-5.128V570.47l-20.4,9.079A3.021,3.021,0,0,1,861.161,579.811Z" fill="#fff"/>
    <path id="Path_197" data-name="Path 197" d="M897.134,571.414V560.775H869.866a1.516,1.516,0,1,1,0-3.032h26.895l-35.633-16-39.171,17.433,39.2,17.607,33.446-14.885v9.521c-1.425,1.821-3.65,5.624-4.455,12.33,0,0-.086,2.577,5.719,2.577s5.719-2.577,5.719-2.577C900.785,577.039,898.56,573.236,897.134,571.414Z" fill="#fff"/>
  </g>
</svg>
