<svg xmlns="http://www.w3.org/2000/svg" width="69.904" height="67.222" viewBox="0 0 69.904 67.222">
  <g id="Group_407" data-name="Group 407" transform="translate(-726.628 -327.998)">
    <g id="Group_399" data-name="Group 399">
      <path id="Path_188" data-name="Path 188" d="M796.48,329.546a1.7,1.7,0,0,0-.077-.385,1.81,1.81,0,0,0-.2-.334,1.761,1.761,0,0,0-.134-.229c-.012-.013-.028-.017-.04-.029a1.813,1.813,0,0,0-.322-.241,1.885,1.885,0,0,0-.248-.166,7.288,7.288,0,0,0-.686-.154c-.017,0-.031-.01-.048-.01H781.161a1.8,1.8,0,1,0,0,3.608h8.848l-23.117,20.705-8.626-11.205a1.808,1.808,0,0,0-1.314-.7,1.837,1.837,0,0,0-1.391.525l-28.4,28.4a1.8,1.8,0,1,0,2.551,2.551l26.952-26.951,8.558,11.117a1.8,1.8,0,0,0,1.264.7,1.733,1.733,0,0,0,1.369-.452l25.073-22.455v9.53a1.8,1.8,0,1,0,3.608,0V329.8A1.683,1.683,0,0,0,796.48,329.546Z" fill="#fff"/>
    </g>
    <g id="Group_400" data-name="Group 400">
      <path id="Path_189" data-name="Path 189" d="M768.091,395.22h7.25V366.26l-7.25,6.493Z" fill="#fff"/>
    </g>
    <g id="Group_401" data-name="Group 401">
      <path id="Path_190" data-name="Path 190" d="M747.82,395.22h7.248v-32.15l-7.248,7.248Z" fill="#fff"/>
    </g>
    <g id="Group_402" data-name="Group 402">
      <path id="Path_191" data-name="Path 191" d="M737.685,395.22h7.248V373.2l-7.248,7.248Z" fill="#fff"/>
    </g>
    <g id="Group_403" data-name="Group 403">
      <path id="Path_192" data-name="Path 192" d="M757.956,395.22H765.2V372.17l-7.248-9.414Z" fill="#fff"/>
    </g>
    <g id="Group_404" data-name="Group 404">
      <path id="Path_193" data-name="Path 193" d="M788.363,395.22h6.365V348.9l-6.365,5.7Z" fill="#fff"/>
    </g>
    <g id="Group_405" data-name="Group 405">
      <path id="Path_194" data-name="Path 194" d="M728.432,395.22H734.8V383.34l-6.365,6.365Z" fill="#fff"/>
    </g>
    <g id="Group_406" data-name="Group 406">
      <path id="Path_195" data-name="Path 195" d="M778.228,395.22h7.248V357.183l-7.248,6.492Z" fill="#fff"/>
    </g>
  </g>
</svg>
