<svg id="Group_396" data-name="Group 396" xmlns="http://www.w3.org/2000/svg" width="45.084" height="37.511" viewBox="0 0 45.084 37.511">
  <path id="Path_182" data-name="Path 182" d="M464.361,956.63H454.335v-3.01a3.7,3.7,0,0,0-3.694-3.7H439.525a3.7,3.7,0,0,0-3.7,3.7v3.01H425.808a3.265,3.265,0,0,0-3.266,3.264v24.279a3.264,3.264,0,0,0,3.266,3.263h38.553a3.263,3.263,0,0,0,3.264-3.263V959.894A3.264,3.264,0,0,0,464.361,956.63Zm-25.8-3.01a.968.968,0,0,1,.967-.967h11.116a.969.969,0,0,1,.968.967v3.01H438.558Zm28.841,14.6a5.137,5.137,0,0,1-.8,1.444,9.342,9.342,0,0,1-2.51,2.139A23.206,23.206,0,0,1,458,974.229a48.478,48.478,0,0,1-9.752,1.425v3.4h-6.338v-3.4a48.686,48.686,0,0,1-9.75-1.427,23.246,23.246,0,0,1-6.081-2.423,9.359,9.359,0,0,1-2.512-2.138,5.218,5.218,0,0,1-.8-1.443,4.17,4.17,0,0,1-.219-1.61,4.474,4.474,0,0,0,1.309,2.809,9.219,9.219,0,0,0,2.549,1.8,25.166,25.166,0,0,0,6,1.973,52.9,52.9,0,0,0,6.3.912q1.6.142,3.2.214V971.3h6.338v3.026q1.606-.069,3.2-.214a53.349,53.349,0,0,0,6.3-.913,25.17,25.17,0,0,0,6-1.973,9.219,9.219,0,0,0,2.551-1.8,4.484,4.484,0,0,0,1.308-2.808A4.189,4.189,0,0,1,467.4,968.223Z" transform="translate(-422.541 -949.925)" fill="#fff"/>
  <path id="Path_183" data-name="Path 183" d="M443.278,974.366v3.325h3.611V972.66h-3.611Z" transform="translate(-422.541 -949.925)" fill="#fff"/>
</svg>
