<svg id="Group_397" data-name="Group 397" xmlns="http://www.w3.org/2000/svg" width="45.681" height="45.164" viewBox="0 0 45.681 45.164">
  <path id="Path_184" data-name="Path 184" d="M1195.535,954.931v35.2H1232.7V944.963h-27.2Zm5.619-1.657,2.423-2.424.036-.034.22-.22.289-.291.452-.45.21-.21V954.7h-5.054Zm5.191,3.83a1.224,1.224,0,0,0,.9-1.177v-8.506h23v40.245h-32.249V957.157h8.018A1.194,1.194,0,0,0,1206.345,957.1Z" transform="translate(-1195.535 -944.963)" fill="#fff"/>
  <rect id="Rectangle_193" data-name="Rectangle 193" width="17.295" height="2.968" transform="translate(5.585 36.253)" fill="#fff"/>
  <rect id="Rectangle_194" data-name="Rectangle 194" width="17.295" height="2.969" transform="translate(5.585 30.162)" fill="#fff"/>
  <rect id="Rectangle_195" data-name="Rectangle 195" width="26.335" height="2.97" transform="translate(5.585 24.072)" fill="#fff"/>
  <rect id="Rectangle_196" data-name="Rectangle 196" width="26.335" height="2.968" transform="translate(5.585 17.983)" fill="#fff"/>
  <path id="Path_185" data-name="Path 185" d="M1201.12,960.074h26.335V957.1h-19.037a2.515,2.515,0,0,1-.332.513,2.727,2.727,0,0,1-.534.511,2.688,2.688,0,0,1-1.54.488h-4.892Z" transform="translate(-1195.535 -944.963)" fill="#fff"/>
  <path id="Path_186" data-name="Path 186" d="M1227.455,950.305H1208.7v2.969h18.754Z" transform="translate(-1195.535 -944.963)" fill="#fff"/>
  <path id="Path_187" data-name="Path 187" d="M1241.211,974.181c0-.025-.006-.051-.008-.076a.976.976,0,0,0-.023-.148c0-.009,0-.02-.005-.03l-1.909-6.646a1.022,1.022,0,0,0-.983-.74h-.011a1.018,1.018,0,0,0-.976.761l-1.749,6.647,0,.026a.9.9,0,0,0-.02.147.449.449,0,0,0-.007.072l0,.015V988.85a1.022,1.022,0,0,0,1.021,1.02h3.66a1.022,1.022,0,0,0,1.022-1.02V974.209C1241.216,974.2,1241.211,974.192,1241.211,974.181Zm-2.883-2.77.509,1.777h-.976Zm.842,16.416h-1.614v-2.31h1.614Zm0-4.351h-1.614v-8.245h1.614Z" transform="translate(-1195.535 -944.963)" fill="#fff"/>
</svg>
