<svg xmlns="http://www.w3.org/2000/svg" width="60.416" height="33.389" viewBox="0 0 60.416 33.389">
  <path id="Path_171" data-name="Path 171" d="M1754.6,956.893l-6.882,3.489.9.8c.059.053.117.113.176.167-.893.351-1.785.7-2.675,1.053.6-1.441,1.095-3.836.283-4.752-.3-.342-.886-.635-1.961-.089-2.6,1.31-2.682,1.332-4.071,1.65a6.327,6.327,0,0,0-2.031-1.051,5.719,5.719,0,0,0-2.391-.1c-.381.064-.708.127-1.045.162a9.032,9.032,0,0,1-1.02.042c-.693-.006-1.423-.069-2.176-.062a6.666,6.666,0,0,0-1.173.1,2.82,2.82,0,0,0-.629.192,1.492,1.492,0,0,0-.739.652,1.633,1.633,0,0,0-.092.222l-.018.063-.018.064-.006.033-.03.136-.108.532c-.027.136-.06.266-.088.4a56.728,56.728,0,0,0-8.662.361l-4.733-.7a11.68,11.68,0,0,0,.032-1.882l-.045-.488-5.609-2.421-7,20.091,6.048,3.244.435-.417a10.927,10.927,0,0,0,1.891-2.7c.774.527,2.158,1.468,2.892,1.97l.189.131a4.938,4.938,0,0,0-.651.45,2.774,2.774,0,0,0-.807,1.058,1.282,1.282,0,0,0-.059.793,1.426,1.426,0,0,0,.44.689,2.461,2.461,0,0,0,.257.2c.1.066.194.14.291.194a4.085,4.085,0,0,0,.6.29,4.865,4.865,0,0,0,2.572.185,6.049,6.049,0,0,0,1.951-.709c.069.046.137.093.207.138a4.294,4.294,0,0,0,.12.737,3.141,3.141,0,0,0,.493,1.082,1.87,1.87,0,0,0,.912.679l.006,0a4,4,0,0,0,1.072.233,2.038,2.038,0,0,0,1.11-.211c.026-.015.052-.036.08-.052.113.074.226.14.337.211a3,3,0,0,0,.569,1.279,3.729,3.729,0,0,0,1.755,1.162v0h0a.975.975,0,0,0,.982-.2c.047-.044.085-.1.13-.144a3.59,3.59,0,0,0,.051.967,2.014,2.014,0,0,0,.5,1,1.526,1.526,0,0,0,.5.334,2.193,2.193,0,0,0,.521.113,2.556,2.556,0,0,0,1.03-.057,1.842,1.842,0,0,0,.892-.566l.038-.054a12.339,12.339,0,0,0,4.6,1.264,3.126,3.126,0,0,0,1.44-.3,2.246,2.246,0,0,0,1.095-1.22,4.744,4.744,0,0,0,3.71-.049,3.438,3.438,0,0,0,1.653-2.326,3.333,3.333,0,0,0,3.016-.255,3.7,3.7,0,0,0,1.194-2.962,3.581,3.581,0,0,0,3.763-1.061,3.53,3.53,0,0,0,.391-3.5l2.552-1.178,2.012,3.379.449-.34,7.175-4.158Zm-9.787,1.406c.333-.168.773-.321.969-.1.523.592.047,2.939-.548,4.165-.39-.283-.785-.556-1.207-.809a8.154,8.154,0,0,0-1.031-.538,5.609,5.609,0,0,1-.858-.472c-.308-.2-.613-.439-.926-.683A15.732,15.732,0,0,0,1744.818,958.3Zm-36.292,18.464-3.712-1.994,5.956-17.085,3.057,1.322C1713.889,962.851,1711.4,973.288,1708.526,976.763Zm40.813,2.89c-.558.7-1.718.767-2.956.173l-.829-.4c-.224-.17-.45-.338-.672-.516-.636-.51-1.257-1.046-1.856-1.6a31.06,31.06,0,0,1-3.328-3.645,30.994,30.994,0,0,0,2.879,4.071q.8.961,1.682,1.863c.3.312.62.625.937.928l.007.1c.122,1.972-.273,2.581-.522,2.767-.518.39-1.794-.067-2.4-.288l-1.006-.357v.009c-.177-.116-.356-.233-.532-.355-.563-.393-1.116-.8-1.652-1.244s-1.051-.9-1.546-1.38a14.855,14.855,0,0,1-1.393-1.55,14.559,14.559,0,0,0,1.16,1.755q.641.842,1.355,1.623c.474.524.974,1.031,1.493,1.518.317.3.655.6,1,.887a2.238,2.238,0,0,1-.935,1.827c-.974.535-2.61-.1-3.155-.381l-1.182-.626,0,.09a20.254,20.254,0,0,1-3.9-4.02,19.487,19.487,0,0,0,2,2.915c.376.46.77.907,1.185,1.334.224.229.454.452.7.671l-.006.345c-.017.727-.3.869-.4.924-.785.4-2.374.042-4.731-1.039a2.218,2.218,0,0,0,.019-.244,5.467,5.467,0,0,0-.673-2.683,1.532,1.532,0,0,0-.63-.668h0a1.024,1.024,0,0,0-.93.1,3.086,3.086,0,0,0-.742.618.3.3,0,0,1-.024.03,5.732,5.732,0,0,0-.137-2.1,2.8,2.8,0,0,0-.525-1.041,1.945,1.945,0,0,0-.488-.423,1.554,1.554,0,0,0-.308-.147,1.412,1.412,0,0,0-.394-.068,1.946,1.946,0,0,0-1.253.472,3.5,3.5,0,0,0-.549.554,6.735,6.735,0,0,0-.109-1.069,4.6,4.6,0,0,0-.974-2.19c-.08-.081-.16-.16-.252-.237a2.122,2.122,0,0,0-.3-.2,1.373,1.373,0,0,0-.873-.151,2.3,2.3,0,0,0-1.245.729,4.786,4.786,0,0,0-1.066,1.889c-.962-.649-1.95-1.322-3-2.046-.5-.354-.939-.654-1.282-.889-.808-.551-2.4-1.63-3.1-2.111a51,51,0,0,0,3.4-12.694l4.86.72.088-.013a54.509,54.509,0,0,1,8.273-.368,5.919,5.919,0,0,1-.536,1.3c-.349.546-.881,1.1-1.281,1.748a3.431,3.431,0,0,0-.5,1.111,1.606,1.606,0,0,0,0,.7,1.425,1.425,0,0,0,.344.634,2.009,2.009,0,0,0,.528.393,4.707,4.707,0,0,0,.542.236,3.737,3.737,0,0,0,3.372-.408,9.064,9.064,0,0,0,1.714-1.426,3.9,3.9,0,0,0,.655-.926,2.091,2.091,0,0,0,.216-.938,5.522,5.522,0,0,0,2.148.215,3.433,3.433,0,0,0,1.135-.33.679.679,0,1,1,.891-.446,2.645,2.645,0,0,0,.328,1.3,4.014,4.014,0,0,0,.456.687c.035.043.07.086.106.127l-.171.241c4.61,3.258,8.268,7.879,10.233,10.362C1749.684,977.668,1749.933,978.911,1749.339,979.653Zm4.575-3.8.944-.436c.172.746.3,1.375.393,1.838Zm2.482-1.148a57.969,57.969,0,0,0-2.01-6.809c-.359-.974-.761-1.946-1.2-2.872a18.456,18.456,0,0,0-2.635-4.219l.719-.364,2.574-1.306,7.217,15.094-4.237,2.454C1756.721,976.156,1756.576,975.478,1756.4,974.7Z" transform="translate(-1702.792 -955.467)" fill="#fff"/>
</svg>
