<svg id="Group_395" data-name="Group 395" xmlns="http://www.w3.org/2000/svg" width="51.886" height="54.467" viewBox="0 0 51.886 54.467">
  <path id="Path_175" data-name="Path 175" d="M942.621,968.845H934.6a.292.292,0,0,0-.291.292V971a.292.292,0,0,0,.291.291h8.218a.291.291,0,0,0,.289-.322l-.2-1.865A.291.291,0,0,0,942.621,968.845Z" transform="translate(-934.307 -942.695)" fill="#fff"/>
  <path id="Path_176" data-name="Path 176" d="M985.9,968.845h-8.019a.291.291,0,0,0-.289.26l-.2,1.866a.291.291,0,0,0,.289.322H985.9a.292.292,0,0,0,.291-.291v-1.865A.292.292,0,0,0,985.9,968.845Z" transform="translate(-934.307 -942.695)" fill="#fff"/>
  <path id="Path_177" data-name="Path 177" d="M973.891,957.533a.292.292,0,0,0,.419.018l5.424-5.193a.29.29,0,0,0,.005-.415l-1.319-1.319a.29.29,0,0,0-.407-.005l-5.331,5.126a.29.29,0,0,0-.017.4Z" transform="translate(-934.307 -942.695)" fill="#fff"/>
  <path id="Rectangle_191" data-name="Rectangle 191" d="M.291,0H2.155a.291.291,0,0,1,.291.291V7.945a.292.292,0,0,1-.292.292H.291A.291.291,0,0,1,0,7.946V.291A.291.291,0,0,1,.291,0Z" transform="translate(24.702)" fill="#fff"/>
  <path id="Path_178" data-name="Path 178" d="M946.093,957.659a.291.291,0,0,0,.425-.015l1.227-1.41a.293.293,0,0,0-.013-.4l-5.558-5.556a.29.29,0,0,0-.411,0l-1.319,1.319a.291.291,0,0,0,0,.412Z" transform="translate(-934.307 -942.695)" fill="#fff"/>
  <path id="Path_179" data-name="Path 179" d="M970.86,957.7a15.037,15.037,0,0,0-23.139,18.976,14.523,14.523,0,0,0,1.89,2.286c2.836,2.837,3.65,4.261,3.835,4.956l.121.458,3.7-.014a.208.208,0,0,0,.207-.226l-.629-7.594a9.011,9.011,0,0,1-1.054-.518l-1.419.994a1.31,1.31,0,0,1-1.666-.145l-1.015-1.061a1.312,1.312,0,0,1-.146-1.666l.995-1.419a8.825,8.825,0,0,1-.883-2.124l-1.706-.3a1.312,1.312,0,0,1-1.087-1.291v-1.445a1.312,1.312,0,0,1,1.087-1.29l1.7-.3a8.793,8.793,0,0,1,.883-2.123l-.995-1.419a1.313,1.313,0,0,1,.146-1.666l1.036-1.024a1.311,1.311,0,0,1,1.665-.146l1.42,1a8.874,8.874,0,0,1,2.123-.883l.3-1.7a1.309,1.309,0,0,1,1.291-1.086h1.448a1.31,1.31,0,0,1,1.291,1.086l.291,1.7a8.837,8.837,0,0,1,2.132.883l1.432-1a1.313,1.313,0,0,1,1.666.146l1.032,1.037a1.31,1.31,0,0,1,.145,1.665l-.994,1.42a8.862,8.862,0,0,1,.857,2.127l1.7.3a1.31,1.31,0,0,1,1.086,1.29v1.445a1.312,1.312,0,0,1-1.086,1.291l-1.69.307a8.836,8.836,0,0,1-.87,2.115l.978,1.437a1.311,1.311,0,0,1-.146,1.665l-1.037,1.02a1.311,1.311,0,0,1-1.665.146l-1.42-1a8.87,8.87,0,0,1-1.044.516l-.63,7.6a.209.209,0,0,0,.207.226l3.689.013.122-.457c.186-.694,1-2.117,3.841-4.957a14.616,14.616,0,0,0,1.89-2.286A15.032,15.032,0,0,0,970.86,957.7Z" transform="translate(-934.307 -942.695)" fill="#fff"/>
  <rect id="Rectangle_192" data-name="Rectangle 192" width="13.118" height="2.746" rx="0.372" transform="translate(19.366 43.839)" fill="#fff"/>
  <path id="Path_180" data-name="Path 180" d="M965.453,991.494H955.012a.293.293,0,0,0-.293.293v2.156a.292.292,0,0,0,.293.293h1.416a3.937,3.937,0,0,0,7.61,0h1.415a.292.292,0,0,0,.293-.293v-2.156A.293.293,0,0,0,965.453,991.494Z" transform="translate(-934.307 -942.695)" fill="#fff"/>
  <path id="Path_181" data-name="Path 181" d="M966.063,968.207a5.83,5.83,0,1,0-5.83,5.83A5.83,5.83,0,0,0,966.063,968.207Z" transform="translate(-934.307 -942.695)" fill="#fff"/>
</svg>
