<svg id="Group_393" data-name="Group 393" xmlns="http://www.w3.org/2000/svg" width="60.033" height="31.79" viewBox="0 0 60.033 31.79">
  <path id="Path_162" data-name="Path 162" d="M682.18,954.174v3.313h47.669v18.47h2.834V954.174Z" transform="translate(-672.65 -954.174)" fill="#fff"/>
  <path id="Path_163" data-name="Path 163" d="M681.215,959.415h-3.8v2.836h47.669V981.2h2.836V959.415H681.215Z" transform="translate(-672.65 -954.174)" fill="#fff"/>
  <path id="Path_164" data-name="Path 164" d="M688.085,983.127c-.254-.31-.5-.631-.722-.964-.211-.311-.4-.635-.589-.965a12.62,12.62,0,0,1-1.261-3.312c-.071-.317-.132-.638-.181-.964s-.078-.641-.1-.966c-.019-.291-.035-.587-.035-.885a12.712,12.712,0,0,1,6.171-10.891h-9.9c-.074.256-.159.507-.248.754a12.67,12.67,0,0,1-3.8,5.434q-.465.387-.964.728c-.314.213-.635.419-.966.6a12.711,12.711,0,0,1-2.811,1.163.16.16,0,0,0-.025.009v4.092a.216.216,0,0,1,.047.013,12.659,12.659,0,0,1,2.789,1.148c.331.186.652.389.966.6q.5.343.964.728a12.773,12.773,0,0,1,1.715,1.742c.253.31.49.633.712.965.207.313.407.633.586.964a12.71,12.71,0,0,1,1.122,2.837h9.815A12.759,12.759,0,0,1,688.085,983.127Z" transform="translate(-672.65 -954.174)" fill="#fff"/>
  <path id="Path_165" data-name="Path 165" d="M714.25,964.18h-9.811a12.713,12.713,0,0,1,6.172,10.891c0,.3-.016.594-.035.885-.024.325-.056.649-.1.966s-.109.647-.181.964a12.516,12.516,0,0,1-1.261,3.312c-.182.33-.378.654-.59.965-.225.333-.464.654-.721.964a12.773,12.773,0,0,1-3.28,2.837h9.726a12.555,12.555,0,0,1,1.117-2.837c.18-.331.378-.651.586-.964.221-.334.459-.655.711-.965a12.632,12.632,0,0,1,4.1-3.312,12.791,12.791,0,0,1,2.452-.94l.023-.008V972.9a.129.129,0,0,1-.028-.009A12.705,12.705,0,0,1,714.25,964.18Z" transform="translate(-672.65 -954.174)" fill="#fff"/>
  <path id="Path_166" data-name="Path 166" d="M676.452,968.653a10.889,10.889,0,0,0,2.99-4.473H672.65v6.679a10.737,10.737,0,0,0,2.836-1.435A11.007,11.007,0,0,0,676.452,968.653Z" transform="translate(-672.65 -954.174)" fill="#fff"/>
  <path id="Path_167" data-name="Path 167" d="M677.429,982.163a10.709,10.709,0,0,0-.977-1,11.324,11.324,0,0,0-.966-.766,10.768,10.768,0,0,0-2.836-1.424v6.989h6.9a10.841,10.841,0,0,0-1.377-2.837A10.468,10.468,0,0,0,677.429,982.163Z" transform="translate(-672.65 -954.174)" fill="#fff"/>
  <path id="Path_168" data-name="Path 168" d="M706.007,982.163a11.153,11.153,0,0,0,.754-.965,10.7,10.7,0,0,0,1.543-3.312c.084-.315.157-.636.214-.964s.095-.64.124-.966c.021-.291.036-.587.036-.885a10.776,10.776,0,1,0-21.552,0c0,.3.014.594.039.885.028.326.068.649.122.966s.13.649.215.964a10.746,10.746,0,0,0,1.541,3.312,11.586,11.586,0,0,0,.755.965,11.046,11.046,0,0,0,.958.964,10.772,10.772,0,0,0,15.251-.964Zm-4.392-3.184a10.363,10.363,0,0,1-2.013,1.556l-.211.14-.232,1.785-1.819.014c0-.038-.005-.079-.009-.12-.033-.5-.075-1.155-.08-1.371l-.013-.5-.494-.041a6.359,6.359,0,0,1-2.418-.623l-.059-2.36a7.211,7.211,0,0,0,2.112.5,2.245,2.245,0,0,0,1.219-.256,1.188,1.188,0,0,0,.633-1.044.859.859,0,0,0-.473-.738c-.971-.472-1.93-.829-2.444-1.024-.145-.053-.247-.091-.257-.091h0a2.126,2.126,0,0,1-1.248-1.831,2.812,2.812,0,0,1,.864-2.154,8.156,8.156,0,0,1,2.34-1.239l.314-.119.208-1.873h.033c.806,0,1.35.007,1.685.017l.244,1.644,1.94.654c.029,1.033.047,1.609.047,1.729,0,.049,0,.1-.005.163a6.216,6.216,0,0,0-3.248-.107,1.021,1.021,0,0,0-.636.7l-.034.123.025.127c.1.542.637.949,1.739,1.323a8.953,8.953,0,0,1,2.1.889,2.213,2.213,0,0,1,.96,1.941A3.14,3.14,0,0,1,701.615,978.979Z" transform="translate(-672.65 -954.174)" fill="#fff"/>
  <path id="Path_169" data-name="Path 169" d="M716.271,964.18a10.778,10.778,0,0,0,6.884,6.708V964.18h-6.884Z" transform="translate(-672.65 -954.174)" fill="#fff"/>
  <path id="Path_170" data-name="Path 170" d="M718.281,982.163a10.621,10.621,0,0,0-.741.964,10.769,10.769,0,0,0-1.373,2.837h6.988v-7.02a10.75,10.75,0,0,0-3.93,2.254A10.625,10.625,0,0,0,718.281,982.163Z" transform="translate(-672.65 -954.174)" fill="#fff"/>
</svg>
