<svg id="Group_394" data-name="Group 394" xmlns="http://www.w3.org/2000/svg" width="33.669" height="47.611" viewBox="0 0 33.669 47.611">
  <rect id="Rectangle_190" data-name="Rectangle 190" width="3.935" height="2.942" transform="translate(14.866 23.555)" fill="#fff"/>
  <path id="Path_172" data-name="Path 172" d="M1491.128,973.792a4.509,4.509,0,0,0-2.852-3.993l-6.947-2.381-5.907,18.162-5.87-18.049-7.1,2.315a4.419,4.419,0,0,0-2.867,3.946s-2.247,11.519,0,14.3c4.957,6.136,25.97,5.577,31.547,0C1493.655,985.562,1491.128,973.792,1491.128,973.792Z" transform="translate(-1458.582 -944.875)" fill="#fff"/>
  <path id="Path_173" data-name="Path 173" d="M1473.543,976.289l1.935,5.337,1.812-5-.7-4.441h-2.41Z" transform="translate(-1458.582 -944.875)" fill="#fff"/>
  <path id="Path_174" data-name="Path 174" d="M1467.97,959.038a1.789,1.789,0,0,0,.258-.049c1.284,4.108,4.063,7.3,7.288,7.3a6,6,0,0,0,4.165-1.912c.055-.052.108-.1.162-.152a13.216,13.216,0,0,0,2.948-5.2.9.9,0,0,0,.132.024c1.307.129,2.512-1.236,2.693-3.049s-.736-3.387-2.043-3.515a.731.731,0,0,0-.1-.005c-.313-2.725-1.6-7.6-7.953-7.6-6.86,0-7.646,4.878-7.958,7.608a1.842,1.842,0,0,0-.348,0c-1.307.152-2.195,1.744-1.982,3.552S1466.664,959.191,1467.97,959.038Zm1.289-6.484a5.367,5.367,0,0,0,.575-.187,5.639,5.639,0,0,0,1.05-.559c.051-.035.1-.075.144-.11a4.064,4.064,0,0,0,1.358-1.591l.186-.427.334.348c.282.295.573.58.881.847s.637.5.973.727a8.3,8.3,0,0,0,1.064.581c.186.074.364.174.557.234s.38.144.577.188a7.946,7.946,0,0,0,1.193.249,8.78,8.78,0,0,0,1.227.079c.2,0,.413,0,.619-.019q.089-.006.177-.009a3.707,3.707,0,0,0,.446-.041c.416-.044.827-.123,1.245-.192a9.8,9.8,0,0,1-1.206.4,4.32,4.32,0,0,1-.453.108c-.057.012-.114.021-.172.036a5.425,5.425,0,0,1-.636.094,7.072,7.072,0,0,1-1.294.036,6.9,6.9,0,0,1-1.291-.18c-.215-.039-.421-.116-.631-.176s-.411-.15-.616-.227a8.968,8.968,0,0,1-1.16-.612c-.183-.118-.361-.245-.54-.37l-.506-.413c-.222-.2-.425-.415-.631-.628a4.312,4.312,0,0,1-1.622,1.442c-.056.029-.114.047-.171.074a4.319,4.319,0,0,1-1.03.35,5.366,5.366,0,0,1-.627.083,3.794,3.794,0,0,1-.623-.019C1468.861,952.644,1469.064,952.6,1469.259,952.554Z" transform="translate(-1458.582 -944.875)" fill="#fff"/>
</svg>
