<svg xmlns="http://www.w3.org/2000/svg" width="69.99" height="72.007" viewBox="0 0 69.99 72.007">
  <g id="Group_412" data-name="Group 412" transform="translate(-1121.458 -326.424)">
    <path id="Path_200" data-name="Path 200" d="M1161.913,387.966q-5.362-.009-10.731,0a2.535,2.535,0,0,0-1.831.7,2.11,2.11,0,0,0-.593,1.518,2.214,2.214,0,0,0,2.388,2.14q1.182.006,2.36.005h6.135c.749,0,1.5,0,2.248,0a2.573,2.573,0,0,0,1.839-.7,2.066,2.066,0,0,0,.583-1.509A2.207,2.207,0,0,0,1161.913,387.966Z" fill="#9fb0e4"/>
    <path id="Path_201" data-name="Path 201" d="M1150.465,394.862a7.432,7.432,0,0,0,6.071,3.569c3.841,0,5.97-3.409,6.059-3.554l.655-1.074h-13.393Z" fill="#9fb0e4"/>
    <path id="Path_202" data-name="Path 202" d="M1162.178,382.1q-1.617-.01-3.236-.01l-3.792,0-2.442-.009c-.643,0-1.286.006-1.932.024a2.342,2.342,0,0,0-1.9.973,2.119,2.119,0,0,0-.235,1.929,2.217,2.217,0,0,0,2.321,1.494l8.718,0c.835,0,1.67,0,2.505-.008a2.166,2.166,0,0,0,2.377-2.144,2.116,2.116,0,0,0-.58-1.57A2.468,2.468,0,0,0,1162.178,382.1Z" fill="#9fb0e4"/>
    <path id="Path_203" data-name="Path 203" d="M1166.9,338.811a2.392,2.392,0,0,0,1.025.231c.061,0,.121,0,.182-.006a2.4,2.4,0,0,0,1.966-1.352l3.737-7.855a2.386,2.386,0,0,0-2.15-3.4,2.4,2.4,0,0,0-2.153,1.358l-3.737,7.852A2.389,2.389,0,0,0,1166.9,338.811Z" fill="#9fb0e4"/>
    <path id="Path_204" data-name="Path 204" d="M1191.36,349.489a2.388,2.388,0,0,0-2.294-1.741,2.338,2.338,0,0,0-.639.086l-8.378,2.328a2.383,2.383,0,0,0,.634,4.679c.061,0,.125,0,.187-.008a2.1,2.1,0,0,0,.453-.081l8.378-2.328a2.385,2.385,0,0,0,1.659-2.935Z" fill="#9fb0e4"/>
    <path id="Path_205" data-name="Path 205" d="M1141.679,338.975a2.377,2.377,0,0,0,1.991,1.067c.059,0,.119,0,.188-.008a2.4,2.4,0,0,0,1.123-.393,2.377,2.377,0,0,0,.665-3.3l-4.813-7.243a2.38,2.38,0,1,0-3.965,2.633Z" fill="#9fb0e4"/>
    <path id="Path_206" data-name="Path 206" d="M1185.618,374.486l-7.236-4.821a2.382,2.382,0,0,0-3.3.664,2.377,2.377,0,0,0,.663,3.3l7.236,4.82a2.364,2.364,0,0,0,1.325.4c.058,0,.118,0,.181-.007a2.382,2.382,0,0,0,1.134-4.358Z" fill="#9fb0e4"/>
    <path id="Path_207" data-name="Path 207" d="M1132.036,354.833c.063.005.125.008.185.008a2.383,2.383,0,0,0,.635-4.68l-8.377-2.327a2.334,2.334,0,0,0-.637-.086,2.381,2.381,0,0,0-.638,4.676l8.363,2.324A2.192,2.192,0,0,0,1132.036,354.833Z" fill="#9fb0e4"/>
    <path id="Path_208" data-name="Path 208" d="M1135.843,370.055a2.377,2.377,0,0,0-1.32.4l-7.236,4.823a2.381,2.381,0,0,0,1.139,4.355c.058.005.118.009.176.009a2.387,2.387,0,0,0,1.325-.4l7.236-4.823a2.379,2.379,0,0,0-1.32-4.361Z" fill="#9fb0e4"/>
    <path id="Path_209" data-name="Path 209" d="M1156.6,340.294a17.932,17.932,0,0,0-8.841,33.538v4.092a2.117,2.117,0,0,0,2.115,2.116h13.453a2.117,2.117,0,0,0,2.116-2.116V373.83a17.93,17.93,0,0,0-8.843-33.536Zm5.826,30.339a2.115,2.115,0,0,0-1.212,1.913v3.263h-9.224v-3.263a2.116,2.116,0,0,0-1.213-1.913,13.711,13.711,0,1,1,11.649,0Z" fill="#9fb0e4"/>
    <path id="Path_210" data-name="Path 210" d="M1164.688,352.832a2.118,2.118,0,0,0-2.969.374l-6.141,7.922-4.385-4.5a2.114,2.114,0,1,0-3.029,2.951l6.08,6.244a2.11,2.11,0,0,0,1.516.639c.038,0,.078,0,.12,0a2.113,2.113,0,0,0,1.55-.814l7.634-9.843A2.115,2.115,0,0,0,1164.688,352.832Z" fill="#9fb0e4"/>
  </g>
</svg>
