<svg xmlns="http://www.w3.org/2000/svg" width="85.489" height="117.736" viewBox="0 0 85.489 117.736">
  <g id="Group_356" data-name="Group 356" transform="translate(1857.934 -427.748)">
    <path id="Path_148" data-name="Path 148" d="M-1800.2,462.722a4.283,4.283,0,0,1-.549-6.033,4.282,4.282,0,0,1,1.812-1.279,2.56,2.56,0,0,0-2.55-2.562h-27.29a5.718,5.718,0,0,1-2.551,7.671,2.547,2.547,0,0,0,1.221,2.175,42.734,42.734,0,0,0-25.13,54.961,42.733,42.733,0,0,0,54.961,25.13,42.732,42.732,0,0,0,25.13-54.961,42.733,42.733,0,0,0-25.055-25.1Zm-14.988,77.644a37.63,37.63,0,0,1-37.63-37.629,37.629,37.629,0,0,1,37.629-37.629,37.629,37.629,0,0,1,37.629,37.629h0a37.671,37.671,0,0,1-37.627,37.629Z" fill="#9fb0e4"/>
    <path id="Path_149" data-name="Path 149" d="M-1804.418,502.469a13.62,13.62,0,0,0-4.05-2.152,46.514,46.514,0,0,0-5.8-1.648V487.614q3.916,1.089,4.781,4.411a3.591,3.591,0,0,0,3.653,2.817,3.527,3.527,0,0,0,2.491-.97,3.22,3.22,0,0,0,1.039-2.3,6.343,6.343,0,0,0-.616-2.631,11.183,11.183,0,0,0-1.83-2.79,11.6,11.6,0,0,0-4.094-2.658,15.677,15.677,0,0,0-5.424-1.169v-2.87c0-1.453.141-2.179-.993-2.179-1.116,0-.965.744-.965,2.232v2.818c-4.571.319-6.624,1.453-8.564,3.4a11.359,11.359,0,0,0-1.536,13.234,10.4,10.4,0,0,0,4.013,3.442,28.368,28.368,0,0,0,6.087,2.193v12.358a4.534,4.534,0,0,1-3.01-1.462,6.689,6.689,0,0,1-1.685-2.114,32.292,32.292,0,0,1-1.288-3.334,2.9,2.9,0,0,0-1.161-1.568,3.543,3.543,0,0,0-2.03-.557,3.335,3.335,0,0,0-2.489,1.024,3.22,3.22,0,0,0-1,2.3,9.182,9.182,0,0,0,.743,3.522,11.593,11.593,0,0,0,2.3,3.454,13.633,13.633,0,0,0,4.032,2.777,14.487,14.487,0,0,0,5.588,1.462v3.354a3.543,3.543,0,0,0,.231,1.807,1.353,1.353,0,0,0,1.267.585c.69,0,.544-.24.748-.718s-.288-1.24-.288-2.286v-2.8a14.589,14.589,0,0,0,7.12-1.994,11.471,11.471,0,0,0,6.024-9.991,10.973,10.973,0,0,0-.821-4.453A9.8,9.8,0,0,0-1804.418,502.469Zm-11.813-4.783a8.656,8.656,0,0,1-3.714-1.954,4.138,4.138,0,0,1-1.247-3.175,4.2,4.2,0,0,1,1.363-3.3,7.1,7.1,0,0,1,3.6-1.754Zm6.66,17.38c-.976,1.081-2.091,1.8-4.7,2.153v-11.64a9.607,9.607,0,0,1,4.741,2.139,4.535,4.535,0,0,1,1.422,3.575,5.462,5.462,0,0,1-1.463,3.772Z" fill="#9fb0e4"/>
    <path id="Path_150" data-name="Path 150" d="M-1834.082,437.419l6.31,10.86h5.863c-.009,0-.014.225-.023.211l-7.63-13.312c.014-.023.044.011.05.006a.1.1,0,0,0,.044.05l3.572,1.808a5.127,5.127,0,0,0,5.433-.492l4.87-3.688a.062.062,0,0,1,.073,0l4.871,3.693a5.125,5.125,0,0,0,5.432.5l4.314-2.164.031-.015c.022.008.054-.219.063-.208l-6.571,13.609h5.645l5.611-11.584c.031-.066.06-.006.085-.074a5.034,5.034,0,0,0-1.391-5.58,5.128,5.128,0,0,0-5.761-.739l-4.313,2.18a.061.061,0,0,1-.064,0l-4.87-3.688a5.18,5.18,0,0,0-6.237,0l-4.87,3.693a.06.06,0,0,1-.064.007l-3.572-1.792a5.1,5.1,0,0,0-5.906.907,4.911,4.911,0,0,0-1.094,5.746C-1834.149,437.422-1834.117,437.357-1834.082,437.419Z" fill="#9fb0e4"/>
  </g>
</svg>
