<svg xmlns="http://www.w3.org/2000/svg" width="65.42" height="55.434" viewBox="0 0 65.42 55.434">
  <g id="Group_413" data-name="Group 413" transform="translate(-1023.703 -535.177)">
    <path id="Path_213" data-name="Path 213" d="M1083.442,573.413V535.177H1029.38v38.236l-5.677,11.53v5.668h65.42v-5.668Zm-50.231-34.406h46.4v31.07h-46.4Zm45.884,38.25h-8.252l-.595-1.64h7.894Zm-19.255,1.278.042.244.309,1.746h-8.948l.307-1.746.043-.244Zm-8.021-1.278.29-1.64h7.216l.289,1.64Zm-9.978-1.64-.6,1.64h-7.515l.953-1.64Zm-3.007,8.26h-8.952l1.205-2.076h8.5Zm-7-3.352,1.155-1.99h7.793l-.724,1.99Zm17.495,3.352h-9.1l.754-2.076h8.713Zm.592-3.352h-8.473l.644-1.769.08-.221h8.1Zm-7.285-3.268.6-1.64h7.551l-.288,1.64Zm8.02,6.62.366-2.076h9.4l.366,2.076Zm10-8.26h8.206l.6,1.64h-8.511Zm.559,3.162-.044-.244h8.752l.724,1.99h-9.125Zm.9,5.1-.366-2.076h9.366l.756,2.076Zm9.2-5.342h8.526l1.157,1.99h-8.961Zm1.941,5.342-.754-2.076h9.238l1.205,2.076Z" fill="#9fb0e4"/>
    <path id="Path_214" data-name="Path 214" d="M1070.352,548.845,1061.2,560.44l-9.68-11.208-1.237-1.432-1.218,1.625-9.743,13.013,3.776,2.579,7.577-12.2,9.909,9.634.8.776.569-.868,8.725-13.284,2.527,1.778.61-6.556-6.029,2.741Z" fill="#9fb0e4"/>
  </g>
</svg>
