<svg xmlns="http://www.w3.org/2000/svg" width="69.487" height="57.578" viewBox="0 0 69.487 57.578">
  <g id="Group_414" data-name="Group 414" transform="translate(-1221.414 -536.228)">
    <path id="Path_215" data-name="Path 215" d="M1265.435,569.759a16.765,16.765,0,1,0-16.765-16.766A16.786,16.786,0,0,0,1265.435,569.759Zm0-29.806a13.04,13.04,0,1,1-13.039,13.04A13.053,13.053,0,0,1,1265.435,539.953Z" fill="#9fb0e4"/>
    <path id="Path_216" data-name="Path 216" d="M1261.2,553.306c.2.1,1.848.647,3.49,1.446.3.145.339.675-.26,1.038a2.214,2.214,0,0,1-1.189.224,13.444,13.444,0,0,1-3.411-.928l.108,4.417a8.3,8.3,0,0,0,3.712,1.076c.014.466.155,2.466.155,2.588l3.594-.027.334-2.561a14.414,14.414,0,0,0,2.711-2.114,4.711,4.711,0,0,0,1.15-3.232,3.514,3.514,0,0,0-1.522-3.042,12.628,12.628,0,0,0-2.858-1.224c-1.09-.37-1.669-.753-1.746-1.15,0,0,.09-.334.334-.41a4.736,4.736,0,0,1,1.374-.184,9.968,9.968,0,0,1,3.156.556,7.271,7.271,0,0,0,.112-1.115q0-.257-.075-2.707l-2.524-.854-.333-2.228c-.52-.076-3.427-.057-3.427-.057l-.286,2.58a10.877,10.877,0,0,0-3.194,1.709,4.29,4.29,0,0,0-1.335,3.265A3.377,3.377,0,0,0,1261.2,553.306Z" fill="#9fb0e4"/>
    <path id="Path_217" data-name="Path 217" d="M1289.6,569.353a2.01,2.01,0,0,0-2.426.2c-.532.37-1.065.742-1.594,1.113l-.176.123c-1.548,1.078-3.146,2.191-4.733,3.227a3.293,3.293,0,0,1-.644.33c-.057.04-.119.077-.188.118a16.139,16.139,0,0,1-1.425.764c-.677.325-1.363.622-2.028.882a16.31,16.31,0,0,1-2.382.772,2.8,2.8,0,0,1-.717.072,2.225,2.225,0,0,0-.479.035c-.2.038-.946.067-1.725.079a6.579,6.579,0,0,1,.643,1.127,3.227,3.227,0,0,1,.24,1.135,3.7,3.7,0,0,1-.033.568l-.017.119c-.005.034-.013.069-.019.1l-.065.3a4.366,4.366,0,0,1-1.052,2.01,5.7,5.7,0,0,1-3.882,1.427,28.839,28.839,0,0,1-3.56-.1l-.1-.006a44.888,44.888,0,0,0-6.188-.2,13.723,13.723,0,0,0-4.085.83,1.137,1.137,0,0,1-.419.079,1.161,1.161,0,0,1-.422-2.242,16.01,16.01,0,0,1,4.775-.983,45.886,45.886,0,0,1,6.507.2l.1.005a26.325,26.325,0,0,0,3.27.1,3.532,3.532,0,0,0,2.342-.72,2.086,2.086,0,0,0,.461-.919l.066-.343a1,1,0,0,0-.065-.5,10.071,10.071,0,0,0-1.575-2.137l-.024-.013c-2.175-1.309-7.221-1.787-8.881-1.943-.333-.033-.549-.054-.6-.068a11.94,11.94,0,0,1-2.665-1.308,26.948,26.948,0,0,0-7.806-3.343,10.538,10.538,0,0,0-2.185-.211,30.033,30.033,0,0,0-7.551,1.323,12.8,12.8,0,0,1-2.468.541c-.042,0-.078,0-.112-.006-.632-.057-.644-.058-.756-.171a3.207,3.207,0,0,0-.674-.236c-2.659-.767-5.39-1.58-8.347-2.48a.134.134,0,0,1-.032-.01c-3.078,1.8-5.653,12.379-3.928,16.135a.557.557,0,0,1,.061.009c.447.112,1.623.292,2.759.465,1.23.187,2.258.344,2.691.449.753.184,1.524.344,2.267.5.866.182,1.818.381,2.747.614.78.2,1.573.436,2.267.644,1.059.315,2.1.625,3.126.842a10.418,10.418,0,0,0,1.848.148,12,12,0,0,1,1.7.117c2.93.5,5.78,1.091,8.18,1.6,1.372.288,2.74.6,4.109.905l.1.024c.776.176,2.749.676,4.656,1.163,2.151.546,4.591,1.167,4.825,1.192.034,0,.067.006.1.006l.066,0a4.36,4.36,0,0,0,2.128-1.3c.274-.241.538-.471.792-.665.388-.29.771-.6,1.154-.909a16.8,16.8,0,0,1,2.976-2.076c.038-.022.173-.111.3-.192s.25-.164.286-.181l.777-.583,2.71-1.55a20.088,20.088,0,0,1,2.857-1.629,5.213,5.213,0,0,0,1.59-1.4c.254-.288.5-.57.758-.813l.7-.669c.807-.777,1.616-1.556,2.426-2.289.391-.357.815-.707,1.156-.985.485-.4.978-.806,1.439-1.251.9-.861,1.839-1.927,2.751-2.96l.065-.075.038-.042c.84-.947,1.7-1.925,2.519-2.731a.364.364,0,0,0,.009-.076A6.029,6.029,0,0,0,1289.6,569.353Z" fill="#9fb0e4"/>
  </g>
</svg>
