<svg xmlns="http://www.w3.org/2000/svg" width="47.845" height="62.46" viewBox="0 0 47.845 62.46">
  <path id="Path_211" data-name="Path 211" d="M687.975,592.953c-1.793-1.52-1.806-4.142-1.826-7.768-.037-6.763-.093-16.875-12.607-28.633a3.539,3.539,0,0,0-.6-4.816l.819-.851c4.38-4.54,7.195-7.678,6.448-9.856-.2-.587-.833-1.569-2.808-1.569a8.585,8.585,0,0,0-3.117.653,3.624,3.624,0,0,1-1.443.312,6.414,6.414,0,0,1-2.221-.535,7,7,0,0,0-2.42-.569,3.871,3.871,0,0,0-2.049.593,2.954,2.954,0,0,1-1.571.453,7.216,7.216,0,0,1-2.428-.611,7.263,7.263,0,0,0-2.474-.615,2.988,2.988,0,0,0-2.065.809,3.385,3.385,0,0,1-2.418.87,11.177,11.177,0,0,1-1.755-.183,9.452,9.452,0,0,0-1.435-.158,1.95,1.95,0,0,0-2.118,1.879c-.169,1.493,1.666,3.144,5.193,6.178,1.027.881,2.075,1.782,3.041,2.681a3.567,3.567,0,0,0-.635,6.109c-12.192,10.472-12.788,20.3-13.224,27.573-.208,3.465-.372,6.2-1.816,7.9a4,4,0,0,0-.838,4.19,3.045,3.045,0,0,0,2.928,1.7h0a6.881,6.881,0,0,0,2.587-.587,3.176,3.176,0,0,1,1.241-.233,14.843,14.843,0,0,1,4.472,1.173,36.027,36.027,0,0,0,12.54,2.564c.1,0,.207,0,.308,0h0a31.452,31.452,0,0,0,11.852-2.634,15.2,15.2,0,0,1,4.666-1.318,2.621,2.621,0,0,1,1.246.284,4.683,4.683,0,0,0,2.2.582,3.5,3.5,0,0,0,3.333-2.182A2.983,2.983,0,0,0,687.975,592.953Zm-17.66-37.8a3.427,3.427,0,0,0,.239-.628l.057-.168a1.728,1.728,0,0,1,.637-.96c.053-.044.12-.086.179-.128a1.471,1.471,0,0,1,.644,1.2,1.5,1.5,0,0,1-.044.334,1.436,1.436,0,0,1-1.393,1.1h-.958A2.11,2.11,0,0,0,670.315,555.152Zm-3.021,0a3.94,3.94,0,0,0,.245-.643l.05-.153a1.709,1.709,0,0,1,.635-.96,4.869,4.869,0,0,1,.533-.369h.991c-.028.03-.067.055-.1.085a2.407,2.407,0,0,0-.489.893c-.038.13-.068.247-.1.359a1.814,1.814,0,0,1-.351.81,4.253,4.253,0,0,1-.952.725h-1.122A2.127,2.127,0,0,0,667.294,555.152Zm-3.025,0a3.6,3.6,0,0,0,.241-.628l.055-.168a1.732,1.732,0,0,1,.639-.96,4.756,4.756,0,0,1,.532-.369h.99c-.031.03-.069.055-.1.085a2.447,2.447,0,0,0-.489.893c-.036.127-.067.243-.1.349a1.81,1.81,0,0,1-.353.82,4.231,4.231,0,0,1-.952.725h-1.122A2.112,2.112,0,0,0,664.269,555.152Zm-3.021,0a3.811,3.811,0,0,0,.243-.634l.051-.162a1.745,1.745,0,0,1,.635-.96,5,5,0,0,1,.535-.369h.99c-.028.03-.067.052-.094.084a2.347,2.347,0,0,0-.489.894c-.039.13-.07.246-.1.356a1.826,1.826,0,0,1-.35.813,4.256,4.256,0,0,1-.955.725H660.6A2.149,2.149,0,0,0,661.248,555.152Zm-1.613-2.125h1.044c-.029.03-.068.052-.1.084a2.475,2.475,0,0,0-.489.894c-.037.13-.068.245-.095.352a2.05,2.05,0,0,1-.287.726.83.83,0,0,1-.066.091,3.082,3.082,0,0,1-.682.552,1.432,1.432,0,0,1,.671-2.7Zm12.244,32.5a5.167,5.167,0,0,1-.64.9,17.3,17.3,0,0,1-3.385,2.629l-.275.181-.4,3.051-.854.006-2.236.018-.294,0c-.007-.123-.016-.254-.025-.394-.054-.838-.125-1.921-.136-2.282l-.014-.647-.645-.052a10.6,10.6,0,0,1-4.2-1.11l-.015-.569-.092-3.755a14.62,14.62,0,0,0,3.526.9c.069.005.132.006.186.006a3.762,3.762,0,0,0,1.771-.324c.051-.026.1-.04.155-.07a1.792,1.792,0,0,0,.958-1.558,1.236,1.236,0,0,0-.677-1.06c-.147-.071-.291-.137-.436-.2l-.132-.063c-1.392-.646-2.71-1.139-3.46-1.42-.265-.1-.45-.167-.474-.174a3.712,3.712,0,0,1-2.172-3.212,4.87,4.87,0,0,1,1.5-3.726,9.632,9.632,0,0,1,2.176-1.34q.789-.378,1.776-.757l.407-.157.355-3.169h.28c1.588,0,2.456.016,2.925.034l.415,2.773,3.237,1.1c.005.163.01.316.012.462.06,1.948.069,2.441.069,2.555,0,.152-.009.328-.026.522a13.268,13.268,0,0,0-3.521-.513,7.6,7.6,0,0,0-.937.062c-.088.009-.174.024-.258.038a5.365,5.365,0,0,0-.807.176,1.487,1.487,0,0,0-.921,1.03l-.044.162.03.162c.124.64.675,1.165,1.742,1.649.02.008.042.019.063.026.284.127.6.252.955.374a15.194,15.194,0,0,1,3.542,1.5,3.878,3.878,0,0,1,1.684,3.388A5.671,5.671,0,0,1,671.879,585.528Z" transform="translate(-641.324 -539.141)" fill="#9fb0e4"/>
</svg>
