<svg id="Component_1_1" data-name="Component 1 – 1" xmlns="http://www.w3.org/2000/svg" width="35" height="35" viewBox="0 0 35 35">
  <circle id="Ellipse_1" data-name="Ellipse 1" cx="17.5" cy="17.5" r="17.5" fill="#9FB0E4"/>
  <g id="Icon_ionic-logo-instagram" data-name="Icon ionic-logo-instagram" transform="translate(2.526 3.174)">
    <path id="Path_3" data-name="Path 3" d="M19.338,6.138a4.507,4.507,0,0,1,3.082,1.2A3.935,3.935,0,0,1,23.7,10.232V18.42a3.964,3.964,0,0,1-1.282,2.891,4.473,4.473,0,0,1-3.082,1.2H10.61a4.507,4.507,0,0,1-3.082-1.2A3.935,3.935,0,0,1,6.246,18.42V10.232A3.964,3.964,0,0,1,7.528,7.34a4.473,4.473,0,0,1,3.082-1.2h8.728m0-1.638H10.61A5.947,5.947,0,0,0,4.5,10.232V18.42a5.947,5.947,0,0,0,6.11,5.732h8.728a5.947,5.947,0,0,0,6.11-5.732V10.232A5.947,5.947,0,0,0,19.338,4.5Z" fill="#fff"/>
    <path id="Path_4" data-name="Path 4" d="M25.313,12.375A1.688,1.688,0,1,1,27,10.688,1.683,1.683,0,0,1,25.313,12.375Z" transform="translate(-4.899 -1.4)" fill="#fff"/>
    <path id="Path_5" data-name="Path 5" d="M15.38,12.605a2.711,2.711,0,1,1-2.753,2.711,2.735,2.735,0,0,1,2.753-2.711m0-1.355a4.067,4.067,0,1,0,4.13,4.066,4.1,4.1,0,0,0-4.13-4.066Z" transform="translate(-0.406 -0.99)" fill="#fff"/>
  </g>
</svg>

