<svg id="Component_2_1" data-name="Component 2 – 1" xmlns="http://www.w3.org/2000/svg" width="35" height="35" viewBox="0 0 35 35">
  <circle id="Ellipse_2" data-name="Ellipse 2" cx="17.5" cy="17.5" r="17.5" fill="#9FB0E4"/>
  <path id="Icon_zocial-linkedin" data-name="Icon zocial-linkedin" d="M-.18,2.2A1.788,1.788,0,0,1,.477.776,2.544,2.544,0,0,1,2.187.216,2.467,2.467,0,0,1,3.859.768a1.868,1.868,0,0,1,.657,1.483A1.748,1.748,0,0,1,3.878,3.63,2.547,2.547,0,0,1,2.149,4.2H2.131A2.419,2.419,0,0,1,.459,3.63,1.835,1.835,0,0,1-.18,2.2ZM.064,17.286V5.768h4.17V17.286H.064Zm6.481,0h4.17V10.855a2.3,2.3,0,0,1,.15-.931,2.528,2.528,0,0,1,.8-.991,2.162,2.162,0,0,1,1.343-.405q2.1,0,2.1,2.6v6.156h4.17v-6.6a5.257,5.257,0,0,0-1.315-3.871,4.69,4.69,0,0,0-3.475-1.319,4.362,4.362,0,0,0-3.776,1.914v.034H10.7l.019-.034V5.768H6.545q.038.552.038,3.431t-.038,8.087Z" transform="translate(7.949 8.749)" fill="#fff"/>
</svg>
